<svg xmlns="http://www.w3.org/2000/svg" viewBox="0 0 64 64" role="img" aria-label="Quran Learning App icon">
  <defs>
    <linearGradient id="g" x1="0%" y1="0%" x2="100%" y2="100%">
      <stop offset="0%" stop-color="#10b981" />
      <stop offset="50%" stop-color="#6366f1" />
      <stop offset="100%" stop-color="#ec4899" />
    </linearGradient>
  </defs>
  <rect x="4" y="4" width="56" height="56" rx="14" fill="url(#g)" />
  <path d="M34 15c-3.3 0-6 2.7-6 6v14.5c0 3.8 2.5 6.4 6 6.4 1.6 0 3-.5 4.2-1.4.8-.6 1.9-.1 1.9.9v4.3c0 1.6-1 2.9-2.5 3.3l-7 1.9c-4 .9-7.6-2.3-7.6-6.4V21.8C22 18 25 15 28.8 15H34z" fill="#fff"/>
  <path d="M42.5 21.5c2 0 3.5 1.6 3.5 3.5 0 2-1.6 3.5-3.5 3.5-2 0-3.5-1.6-3.5-3.5 0-2 1.6-3.5 3.5-3.5z" fill="#fff"/>
</svg>
